# xmcd
#
# Track frame offsets:
#	150
#	18806
#	35525
#	51745
#	70241
#	78554
#	94369
#	111587
#	124898
#	139666
#	156700
#	168428
#	174439
#
# Disc length: 2590 seconds
#
# Revision: 1
# Processed by: cddbd v1.5.2PL0 Copyright (c) Steve Scherf et al.
# Submitted via: audiograbber 1.83.01
#
DISCID=bf0a1c0d
DTITLE=Bebo Norman - Christmas From The Realms Of Glory
DYEAR=2007
DGENRE=Christmas
TTITLE0=Come And Worship
TTITLE1=Joy To The World
TTITLE2=Born To Die
TTITLE3=What Child Is This
TTITLE4=Angels Interlude
TTITLE5=Go Tell It On The Mountain
TTITLE6=Silver Bells
TTITLE7=Christmas Time Is Here
TTITLE8=Have Yourself A Merry Little Christmas
TTITLE9=The Rebel Jesus
TTITLE10=O Come, O Come Emmanuel
TTITLE11=Great Light Of The World Interlude
TTITLE12=Mary's Prayer
EXTD=
EXTT0=
EXTT1=
EXTT2=
EXTT3=
EXTT4=
EXTT5=
EXTT6=
EXTT7=
EXTT8=
EXTT9=
EXTT10=
EXTT11=
EXTT12=
PLAYORDER=
